<svg width="584" height="555" viewBox="0 0 584 555" fill="none" xmlns="http://www.w3.org/2000/svg">
<path fill-rule="evenodd" clip-rule="evenodd" d="M292.001 58.9468C290.804 59.3558 288.964 60.0568 286.336 61.2253C279.358 64.2339 271.062 68.5571 260.407 74.6621C238.738 87.0474 211.615 104.544 181.102 126.102C145.862 150.969 129.893 163.488 109.992 179.093C95.2489 190.654 78.3461 203.907 49.8503 225.126C38.4626 236.547 19.9504 236.547 8.56266 225.126C-2.85422 213.733 -2.85422 195.214 8.56266 183.822C73.0126 131.447 84.6558 122.713 147.406 78.3718C178.941 56.1134 208.403 37.0974 231.442 23.9234C243.15 17.2342 254.217 11.5089 262.889 7.71158C270.539 4.35237 281.547 0 292.001 0C302.454 0 313.462 4.35237 321.112 7.71158C329.784 11.5089 340.851 17.2342 352.56 23.9234C375.595 37.0974 405.06 56.1134 436.595 78.3718C499.341 122.713 510.986 131.447 575.437 183.822C586.854 195.214 586.854 213.733 575.437 225.126C564.05 236.547 545.537 236.547 534.147 225.126C505.651 203.907 488.751 190.654 474.008 179.093C454.106 163.488 438.137 150.969 402.899 126.102C372.386 104.544 345.26 87.0474 323.594 74.6621C312.937 68.5571 304.644 64.2339 297.665 61.2253C295.037 60.0568 293.198 59.3558 292.001 58.9468ZM29.1992 525.789C29.1992 509.665 42.2804 496.579 58.3984 496.579H525.586C541.704 496.579 554.785 509.665 554.785 525.789C554.785 541.914 541.704 555 525.586 555H58.3984C42.2804 555 29.1992 541.914 29.1992 525.789ZM262.793 438.158C262.793 454.282 275.874 467.368 291.992 467.368C308.11 467.368 321.191 454.282 321.191 438.158V233.684C321.191 217.56 308.11 204.474 291.992 204.474C275.874 204.474 262.793 217.56 262.793 233.684V438.158ZM437.988 467.368C421.87 467.368 408.789 454.282 408.789 438.158V233.684C408.789 217.56 421.87 204.474 437.988 204.474C454.106 204.474 467.187 217.56 467.187 233.684V438.158C467.187 454.282 454.106 467.368 437.988 467.368ZM116.797 438.158C116.797 454.282 129.878 467.368 145.996 467.368C162.114 467.368 175.195 454.282 175.195 438.158V233.684C175.195 217.56 162.114 204.474 145.996 204.474C129.878 204.474 116.797 217.56 116.797 233.684V438.158Z" fill="white"/>
</svg>
